<?xml version="1.0" encoding="UTF-8"?>
<svg width="158px" height="80px" viewBox="0 0 158 80" version="1.1" xmlns="http://www.w3.org/2000/svg" xmlns:xlink="http://www.w3.org/1999/xlink">
    <!-- Generator: Sketch 44.1 (41455) - http://www.bohemiancoding.com/sketch -->
    <title>Logo - MeisterBundle</title>
    <desc>Created with Sketch.</desc>
    <defs></defs>
    <g id="Symbols" stroke="none" stroke-width="1" fill="none" fill-rule="evenodd">
        <g id="Logo---MeisterBundle">
            <g id="Group">
                <circle id="Oval-3" fill="#FFFFFF" cx="40" cy="40" r="35"></circle>
                <circle id="Oval-3" fill="#FFFFFF" cx="118" cy="40" r="35"></circle>
                <path d="M82.4916837,58.8864409 L82.4916837,58.8864409 C82.9456109,57.8762033 83.3642411,56.8467699 83.7460103,55.7996999 C89.7271078,68.6153746 102.75921,77.5 117.873016,77.5 C138.649442,77.5 155.492063,60.7106781 155.492063,40 C155.492063,19.2893219 138.649442,2.5 117.873016,2.5 C98.9973871,2.5 83.3686963,16.3578008 80.6670058,34.4239731 C79.8818757,34.2181526 79.0561102,34.0389087 78.2151555,33.8643875 C81.1768644,14.6856761 97.8044839,0 117.873016,0 C140.034537,0 158,17.90861 158,40 C158,62.09139 140.034537,80 117.873016,80 C102.563795,80 89.256963,71.4538809 82.4916837,58.8864409 Z M75.5083163,21.1135591 L75.5083163,21.1135591 C75.0543891,22.1237967 74.6357589,23.1532301 74.2539897,24.2003001 C68.2728922,11.3846254 55.2407897,2.5 40.1269841,2.5 C19.3505578,2.5 2.50793651,19.2893219 2.50793651,40 C2.50793651,60.7106781 19.3505578,77.5 40.1269841,77.5 C60.9034104,77.5 77.7460317,60.7106781 77.7460317,40 L80.2539683,40 C80.2539683,62.09139 62.2885055,80 40.1269841,80 C17.9654627,80 0,62.09139 0,40 C0,17.90861 17.9654627,0 40.1269841,0 C55.4362054,0 68.743037,8.54611907 75.5083163,21.1135591 Z" id="Combined-Shape" fill="#8A9499" fill-rule="nonzero" opacity="0.200000003"></path>
                <g id="MeisterTask" transform="translate(98.366118, 25.668508)">
                    <polyline id="Fill-1" fill="#00D5FF" points="5.66504422 12.427698 13.0347422 19.5124125 33.301316 0.0295027624 38.8285703 5.34302026 13.0347039 30.1394475 0.137828192 17.7412523 5.66504422 12.427698"></polyline>
                    <polyline id="Fill-2" fill="#00A9FF" points="7.50744957 24.8258932 5.66504422 23.0547698 7.50744957 21.2835727 9.34989322 23.0547698 7.50744957 24.8258932"></polyline>
                    <polyline id="Fill-3" fill="#00AFFF" points="5.66504422 23.0547698 3.82263888 21.2836096 5.66504422 19.5124125 7.50744957 21.2836096 5.66504422 23.0547698"></polyline>
                    <polyline id="Fill-4" fill="#00B4FF" points="3.82263888 21.2836096 1.98023354 19.5124125 3.82263888 17.7412155 5.66504422 19.5124125 3.82263888 21.2836096"></polyline>
                    <polyline id="Fill-5" fill="#00BAFF" points="1.98023354 19.5124125 0.137828192 17.7412523 1.98023354 15.9700552 3.82260057 17.7412523 1.98023354 19.5124125"></polyline>
                    <polyline id="Fill-6" fill="#00A5F0" points="9.34989322 23.0547698 7.50748788 21.2836096 9.34989322 19.5124125 11.1922603 21.2836096 9.34989322 23.0547698"></polyline>
                    <polyline id="Fill-7" fill="#26C2FF" points="7.50744957 21.2836096 5.66504422 19.5124125 7.50744957 17.7412155 9.34989322 19.5124125 7.50744957 21.2836096"></polyline>
                    <polyline id="Fill-8" fill="#00BCFB" points="5.66504422 19.5124125 3.82263888 17.7412523 5.66504422 15.9700552 7.50744957 17.7412523 5.66504422 19.5124125"></polyline>
                    <polyline id="Fill-9" fill="#00C3FA" points="3.82263888 17.7412523 1.98023354 15.9700921 3.82263888 14.198895 5.66504422 15.9700921 3.82263888 17.7412523"></polyline>
                    <polyline id="Fill-10" fill="#00B2FB" points="11.1922986 21.2836096 9.34989322 19.5124125 11.1922986 17.7412155 13.0347039 19.5124125 11.1922986 21.2836096"></polyline>
                    <polyline id="Fill-11" fill="#00BDF8" points="9.34989322 19.5124125 7.50748788 17.7412523 9.34989322 15.9700552 11.1922603 17.7412523 9.34989322 19.5124125"></polyline>
                    <polyline id="Fill-12" fill="#00D3FF" points="7.50744957 17.7412523 5.66504422 15.9700921 7.50744957 14.198895 9.34989322 15.9700921 7.50744957 17.7412523"></polyline>
                    <polyline id="Fill-13" fill="#00D3EE" points="5.66504422 15.9700552 3.82263888 14.198895 5.66504422 12.427698 7.50744957 14.198895 5.66504422 15.9700552"></polyline>
                    <polyline id="Fill-14" fill="#00A9FF" points="13.0347039 30.1394475 11.1923369 28.3682873 13.0347039 26.5970534 14.8771093 28.3682873 13.0347039 30.1394475"></polyline>
                    <polyline id="Fill-15" fill="#02A3ED" points="14.8771476 28.3682505 13.0347422 26.5970902 14.8771476 24.8258932 16.7195529 26.5970902 14.8771476 28.3682505"></polyline>
                    <polyline id="Fill-16" fill="#03B2FB" points="16.7195529 26.5970902 14.8771476 24.82593 16.7195529 23.0547698 18.5619583 24.82593 16.7195529 26.5970902"></polyline>
                    <polyline id="Fill-17" fill="#19C0FF" points="18.5619583 24.8258932 16.7195529 23.0547698 18.5619583 21.2835727 20.4044019 23.0547698 18.5619583 24.8258932"></polyline>
                    <polyline id="Fill-18" fill="#07BCF8" points="20.4044019 23.0547698 18.5619966 21.2836096 20.4044019 19.5124125 22.2467689 21.2836096 20.4044019 23.0547698"></polyline>
                    <polyline id="Fill-19" fill="#07BAED" points="22.2468073 21.2836096 20.4044019 19.5124125 22.2468073 17.7412155 24.0892126 19.5124125 22.2468073 21.2836096"></polyline>
                    <polyline id="Fill-20" fill="#09C5F3" points="24.0892126 19.5124125 22.2468073 17.7412523 24.0892126 15.9700552 25.9316179 17.7412523 24.0892126 19.5124125"></polyline>
                    <polyline id="Fill-21" fill="#0CCAF2" points="25.9316563 17.7412523 24.0892126 15.9700921 25.9316563 14.198895 27.7740616 15.9700921 25.9316563 17.7412523"></polyline>
                    <polyline id="Fill-22" fill="#0FDAFC" points="27.7740616 15.9700552 25.9316563 14.198895 27.7740616 12.427698 29.6164669 14.198895 27.7740616 15.9700552"></polyline>
                    <polyline id="Fill-23" fill="#0FD3EE" points="29.6164669 14.198895 27.7740616 12.4277348 29.6164669 10.6565378 31.4588723 12.4277348 29.6164669 14.198895"></polyline>
                    <polyline id="Fill-24" fill="#11E2F8" points="31.4588723 12.4277348 29.6165053 10.6565746 31.4588723 8.8853407 33.3012776 10.6565746 31.4588723 12.4277348"></polyline>
                    <polyline id="Fill-25" fill="#13DDEB" points="33.301316 10.6565378 31.4589106 8.88537753 33.301316 7.11418048 35.1437213 8.88537753 33.301316 10.6565378"></polyline>
                    <polyline id="Fill-26" fill="#16F8FF" points="35.1437213 8.88537753 33.301316 7.11421731 35.1437213 5.34302026 36.9861266 7.11421731 35.1437213 8.88537753"></polyline>
                    <polyline id="Fill-27" fill="#16E6E6" points="36.986165 7.11418048 35.1437213 5.34302026 36.986165 3.57186004 38.8285703 5.34302026 36.986165 7.11418048"></polyline>
                    <polyline id="Fill-28" fill="#0FAFFF" points="11.1922986 28.3682505 9.34989322 26.5970902 11.1922986 24.8258932 13.0347039 26.5970902 11.1922986 28.3682505"></polyline>
                    <polyline id="Fill-29" fill="#0EB3FD" points="13.0347039 26.5970902 11.1923369 24.82593 13.0347039 23.0547698 14.8771093 24.82593 13.0347039 26.5970902"></polyline>
                    <polyline id="Fill-30" fill="#0DBAFF" points="14.8771476 24.8258932 13.0347422 23.0547698 14.8771476 21.2835727 16.7195529 23.0547698 14.8771476 24.8258932"></polyline>
                    <polyline id="Fill-31" fill="#0CBCF9" points="16.7195529 23.0547698 14.8771476 21.2836096 16.7195529 19.5124125 18.5619583 21.2836096 16.7195529 23.0547698"></polyline>
                    <polyline id="Fill-32" fill="#09C6FF" points="18.5619583 21.2836096 16.7195529 19.5124125 18.5619583 17.7412155 20.4044019 19.5124125 18.5619583 21.2836096"></polyline>
                    <polyline id="Fill-33" fill="#08C4F6" points="20.4044019 19.5124125 18.5619966 17.7412523 20.4044019 15.9700552 22.2467689 17.7412523 20.4044019 19.5124125"></polyline>
                    <polyline id="Fill-34" fill="#07C3ED" points="22.2468073 17.7412523 20.4044019 15.9700921 22.2468073 14.198895 24.0892126 15.9700921 22.2468073 17.7412523"></polyline>
                    <polyline id="Fill-35" fill="#07D8FF" points="24.0892126 15.9700552 22.2468073 14.198895 24.0892126 12.427698 25.9316179 14.198895 24.0892126 15.9700552"></polyline>
                    <polyline id="Fill-36" fill="#06D1F0" points="25.9316563 14.198895 24.0892126 12.4277348 25.9316563 10.6565378 27.7740616 12.4277348 25.9316563 14.198895"></polyline>
                    <polyline id="Fill-37" fill="#05D5EE" points="27.7740616 12.4277348 25.9316563 10.6565746 27.7740616 8.8853407 29.6164669 10.6565746 27.7740616 12.4277348"></polyline>
                    <polyline id="Fill-38" fill="#03D9EC" points="29.6164669 10.6565378 27.7740616 8.88537753 29.6164669 7.11418048 31.4588723 8.88537753 29.6164669 10.6565378"></polyline>
                    <polyline id="Fill-39" fill="#02E3F0" points="31.4588723 8.88537753 29.6165053 7.11421731 31.4588723 5.34302026 33.3012776 7.11421731 31.4588723 8.88537753"></polyline>
                    <polyline id="Fill-40" fill="#01E2E8" points="33.301316 7.11418048 31.4589106 5.34302026 33.301316 3.57186004 35.1437213 5.34302026 33.301316 7.11418048"></polyline>
                    <polyline id="Fill-41" fill="#00F2F2" points="35.1437213 5.34302026 33.301316 3.57189687 35.1437213 1.80066298 36.9861266 3.57189687 35.1437213 5.34302026"></polyline>
                    <polyline id="Fill-42" fill="#19B2FF" points="9.34989322 26.5970902 7.50748788 24.82593 9.34989322 23.0547698 11.1922603 24.82593 9.34989322 26.5970902"></polyline>
                    <polyline id="Fill-43" fill="#1BB8FF" points="11.1922986 24.8258932 9.34989322 23.0547698 11.1922986 21.2835727 13.0347039 23.0547698 11.1922986 24.8258932"></polyline>
                    <polyline id="Fill-44" fill="#33C4FF" points="13.0347039 23.0547698 11.1923369 21.2836096 13.0347039 19.5124125 14.8771093 21.2836096 13.0347039 23.0547698"></polyline>
                    <polyline id="Fill-45" fill="#1CB4EC" points="14.8771476 21.2836096 13.0347422 19.5124125 14.8771476 17.7412155 16.7195529 19.5124125 14.8771476 21.2836096"></polyline>
                    <polyline id="Fill-46" fill="#1FC2F4" points="16.7195529 19.5124125 14.8771476 17.7412523 16.7195529 15.9700552 18.5619583 17.7412523 16.7195529 19.5124125"></polyline>
                    <polyline id="Fill-47" fill="#23D1FF" points="18.5619583 17.7412523 16.7195529 15.9700921 18.5619583 14.198895 20.4044019 15.9700921 18.5619583 17.7412523"></polyline>
                    <polyline id="Fill-48" fill="#23CAEF" points="20.4044019 15.9700552 18.5619966 14.198895 20.4044019 12.427698 22.2467689 14.198895 20.4044019 15.9700552"></polyline>
                    <polyline id="Fill-49" fill="#22C4E0" points="22.2468073 14.198895 20.4044019 12.4277348 22.2468073 10.6565378 24.0892126 12.4277348 22.2468073 14.198895"></polyline>
                    <polyline id="Fill-50" fill="#26D2E9" points="24.0892126 12.4277348 22.2468073 10.6565746 24.0892126 8.8853407 25.9316179 10.6565746 24.0892126 12.4277348"></polyline>
                    <polyline id="Fill-51" fill="#2CECFF" points="25.9316563 10.6565378 24.0892126 8.88537753 25.9316563 7.11418048 27.7740616 8.88537753 25.9316563 10.6565378"></polyline>
                    <polyline id="Fill-52" fill="#29DAE4" points="27.7740616 8.88537753 25.9316563 7.11421731 27.7740616 5.34302026 29.6164669 7.11421731 27.7740616 8.88537753"></polyline>
                    <polyline id="Fill-53" fill="#2BDEE1" points="29.6164669 7.11418048 27.7740616 5.34302026 29.6164669 3.57186004 31.4588723 5.34302026 29.6164669 7.11418048"></polyline>
                    <polyline id="Fill-54" fill="#2CE2DF" points="31.4588723 5.34302026 29.6165053 3.57189687 31.4588723 1.80066298 33.3012776 3.57189687 31.4588723 5.34302026"></polyline>
                    <polyline id="Fill-55" fill="#2FECE0" points="33.301316 3.57186004 31.4589106 1.80069982 33.301316 0.0295027624 35.1437213 1.80069982 33.301316 3.57186004"></polyline>
                </g>
                <g id="MindMeister" transform="translate(19.500000, 21.646409)">
                    <path d="M8.06515045,14.2553537 C6.86541098,16.0300453 5.97308719,18.3590592 6.03916264,20.4598549 C6.08366076,20.5307675 6.273419,20.720402 6.31860923,20.7913147 C7.12584511,19.4693457 8.15825861,17.6942242 9.21770481,16.3605277 C8.79918631,15.6469452 8.41441799,14.9439175 8.06515045,14.2553537" id="Fill-1" fill="#F3B6CE"></path>
                    <path d="M39.0014845,23.1763472 C38.1247127,24.3346776 37.0370124,25.4396086 35.771686,26.4596321 C37.5308479,30.7466392 37.6822963,34.2097467 35.805884,35.7204119 C33.4807043,37.5923249 28.6242612,35.9973776 23.2990611,32.0656372 C22.8620594,31.7430122 22.4219636,31.4046332 21.9798322,31.0511647 C21.9752724,31.0514774 21.9707534,31.0518293 21.9661937,31.0521029 L21.8366483,30.9360001 C19.5648827,29.10486 17.2432042,26.8777585 15.0257075,24.3381959 C13.1521044,22.1924445 11.5201265,20.0153024 10.1653154,17.9033655 C9.18468745,19.4444442 8.41327805,20.9850147 7.86753481,22.4672993 C9.19641248,24.2609895 10.7532769,26.0355247 12.5199298,27.7318762 C13.4984,28.6714096 14.5018673,29.5489824 15.5198688,30.3620537 C16.5585112,31.1916217 17.6122577,31.9537954 18.6700755,32.6452519 C26.357951,37.670704 34.2582205,38.9622595 38.1089571,35.2647574 C40.806488,32.6745708 40.9540687,28.1760768 39.0014845,23.1763472" id="Fill-2" fill="#F3B6CE"></path>
                    <path d="M17.6503641,8.10046006 C16.2522762,9.17020839 14.8658319,10.3568413 13.5172903,11.6517196 C11.9212203,13.1842372 10.4828683,14.7678087 9.21770481,16.3605277 C8.15825861,17.6942242 7.22045961,19.0343317 6.41322373,20.3563006 C6.37511737,20.4186912 6.33741814,20.4810427 6.29988175,20.5433551 C6.39579902,21.8246294 6.75597735,23.0381184 7.33722138,24.1548942 C7.4797538,23.6032692 7.65680993,23.039643 7.86753481,22.4672993 C8.41327805,20.9850147 9.18468745,19.4444442 10.1653154,17.9033655 C11.2663692,16.1730041 12.631114,14.4420173 14.2370363,12.7921069 C16.2793496,10.6938521 18.4842663,8.96028518 20.6802671,7.64758104 C19.637757,7.7211128 18.6245596,7.87490012 17.6503641,8.10046006" id="Fill-3" fill="#F2488F"></path>
                    <path d="M38.1089571,3.16116641 C34.7154153,-0.0973733777 27.2661931,1.50148306 19.7704372,6.57306351 C20.1607423,6.86644781 20.553368,7.1723024 20.9474594,7.49000182 C26.1394094,4.465974 31.242526,3.81036468 33.9867942,6.27311179 C37.0260202,9.00058887 36.286651,14.7579966 32.6184259,20.5226364 C32.9512459,21.0414243 33.2671296,21.5561857 33.5659144,22.0656306 C34.6398133,20.7137564 35.6771122,19.6003425 36.4917577,18.2608605 C40.2691314,12.04987 41.0680214,6.00247895 38.1089571,3.16116641" id="Fill-4" fill="#F2488F"></path>
                    <path d="M20.9474594,7.49000182 C20.553368,7.1723024 20.1607423,6.86644781 19.7704372,6.57306351 C19.7039139,6.52306504 19.637472,6.47337931 19.5711116,6.42412358 C19.5021863,6.437493 19.4331796,6.45094059 19.3641322,6.4648182 C14.4970226,7.4416843 10.2065973,9.4448286 7.0192206,11.9836093 C5.75283573,12.9922962 4.66069785,14.0854996 3.7756615,15.2325325 C1.82157092,17.7651368 0.877258017,20.55993 1.29899276,23.2859607 C1.54525914,24.8777806 2.23638464,26.310184 3.28565287,27.5491218 C4.39509331,28.8590504 5.90501687,29.9525275 7.71360305,30.7888975 C10.7034862,32.171537 14.5092769,32.8515787 18.6700755,32.6452519 C17.6122577,31.9537954 16.5585112,31.1916217 15.5198688,30.3620537 C11.8079191,29.2722121 8.83647843,27.0356895 7.33722138,24.1548942 C6.75597735,23.0381184 6.39579902,21.8246294 6.29988175,20.5433551 C6.29397852,20.4645068 6.28888953,20.3854631 6.28498119,20.3061067 C6.28233491,20.2518863 6.28021789,20.197705 6.27854871,20.1435628 C6.21243255,18.0427671 6.86541098,16.0300453 8.06515045,14.2553537 C10.0373578,11.3380466 13.4874078,9.06442586 17.6503641,8.10046006 C18.6245596,7.87490012 19.637757,7.7211128 20.6802671,7.64758104 C20.7260273,7.64433642 20.771706,7.64085725 20.8175884,7.63792536 C20.9153377,7.63170975 21.0128834,7.62647145 21.1102663,7.62170224 C21.0559566,7.57752846 21.0017284,7.5337065 20.9474594,7.49000182" id="Fill-5" fill="#F27AAC"></path>
                    <path d="M41.3889941,15.2396082 C40.4599482,9.23412355 33.2014613,5.49530136 24.2494401,5.86968395 C25.4413629,6.65586004 26.6274638,7.53171282 27.7920282,8.49247308 C32.7097835,10.11197 36.212189,13.7809742 36.4917577,18.2608605 C36.4942818,18.3018287 36.4967652,18.342797 36.4988008,18.3839216 C36.6025348,20.498634 35.976182,22.5283999 34.7945186,24.3211518 C32.3651978,28.0066919 27.5883872,30.6905033 21.9798322,31.0511647 C22.4219636,31.4046332 22.8620594,31.7430122 23.2990611,32.0656372 C23.3073256,32.0639953 23.3155901,32.0624316 23.3238547,32.0607507 C28.2435234,31.0733298 32.5740499,29.0373874 35.771686,26.4596321 C37.0370124,25.4396086 38.1247127,24.3346776 39.0014845,23.1763472 C40.8950364,20.6747428 41.8042557,17.9238106 41.3889941,15.2396082" id="Fill-6" fill="#F27AAC"></path>
                    <path d="M36.4988008,18.3839216 C36.4967652,18.342797 36.4942818,18.3018287 36.4917577,18.2608605 C34.8786701,15.6938163 32.7844898,13.1143409 30.2638522,10.6940476 C29.4550286,9.9174099 28.6291059,9.1830696 27.7920282,8.49247308 C26.6274638,7.53171282 25.4413629,6.65586004 24.2494401,5.86968395 C16.5190206,0.770504663 8.54823806,-0.558109857 4.6748656,3.16116641 C1.9803474,5.74842105 1.830039,10.2396049 3.7756615,15.2325325 C4.66069785,14.0854996 5.75283573,12.9922962 7.0192206,11.9836093 C5.25338193,7.68862748 5.09896163,4.2181708 6.97789801,2.70551187 C9.31565768,0.823474112 14.2120799,2.44574657 19.5711116,6.42412358 C20.0805805,6.80233718 20.5942428,7.20189492 21.1102663,7.62170224 C23.3299614,9.42751091 25.5936661,11.608914 27.7581152,14.0877279 C30.7835806,17.5526335 33.1794361,21.0995538 34.7945186,24.3211518 C35.976182,22.5283999 36.6025348,20.498634 36.4988008,18.3839216" id="Fill-7" fill="#F3B6CE"></path>
                    <path d="M32.6184259,20.5226364 C31.5173722,22.2529978 30.1526273,23.9839456 28.5467457,25.633856 C26.4217058,27.8170964 24.1205869,29.6057047 21.8366483,30.9360001 C21.7579522,30.9818549 21.6792561,31.0270059 21.6006007,31.0717661 C16.5714576,33.9330937 11.6580992,34.5586805 8.92734742,32.2659047 C8.88333784,32.2289629 8.83985751,32.1912784 8.79702858,32.152812 C8.35766557,31.7585316 7.99760938,31.3006879 7.71360305,30.7888975 C5.90501687,29.9525275 4.39509331,28.8613959 3.28565287,27.5514673 C2.8723862,29.2980128 2.7931201,30.9024202 3.07932487,32.2706348 L3.07956915,32.2706348 C3.32831896,33.4433901 3.852892,34.4778776 4.6748656,35.267142 C8.31426667,38.7617183 16.618317,36.6685846 24.6418623,30.6976962 C26.2062991,29.533502 27.7600694,28.2213061 29.2665324,26.7748297 C30.8624803,25.2423512 32.3007509,23.6585451 33.5659144,22.0659433 C33.2671296,21.5564984 32.9512459,21.0414243 32.6184259,20.5226364" id="Fill-8" fill="#F2488F"></path>
                </g>
            </g>
            <g id="Plus" transform="translate(67.000000, 29.000000)">
                <circle id="Oval" fill="#FF9F1A" cx="12" cy="12" r="12"></circle>
                <rect id="Rectangle-7" fill="#FFFFFF" x="11" y="6" width="2" height="12"></rect>
                <rect id="Rectangle-7" fill="#FFFFFF" x="6" y="11" width="12" height="2"></rect>
            </g>
        </g>
    </g>
</svg>